<svg id="Camada_1" data-name="Camada 1" xmlns="http://www.w3.org/2000/svg" xmlns:xlink="http://www.w3.org/1999/xlink" viewBox="0 0 35.85 45.59"><defs><style>.cls-1{fill:url(#linear-gradient);}.cls-2{fill:url(#linear-gradient-2);}</style><linearGradient id="linear-gradient" x1="-1.6" y1="36.97" x2="34.66" y2="12.66" gradientUnits="userSpaceOnUse"><stop offset="0" stop-color="#f9ae40"/><stop offset="0.52" stop-color="#f06522"/><stop offset="1" stop-color="#e13d21"/></linearGradient><linearGradient id="linear-gradient-2" x1="-1.79" y1="36.69" x2="34.48" y2="12.38" xlink:href="#linear-gradient"/></defs><title>Entrar MK Contatos</title><path class="cls-1" d="M35.85,22.77V39.19c0,1.3,0,2.6,0,3.9a2.43,2.43,0,0,1-1.17,2.13,2.22,2.22,0,0,1-1.23.37H5.78a2.44,2.44,0,0,1-2.45-1.88A3.07,3.07,0,0,1,3.25,43V40.93c0-.17,0-.23-.23-.23-.7,0-1.41,0-2.12,0a.87.87,0,0,1-.9-.85A.84.84,0,0,1,.88,39H3c.19,0,.25-.06.25-.26,0-.9,0-1.81,0-2.72,0-.19,0-.26-.25-.25H.85a.78.78,0,0,1-.74-.43.79.79,0,0,1,.06-.89.79.79,0,0,1,.7-.34H3c.21,0,.27-.06.27-.26,0-.89,0-1.79,0-2.68,0-.24,0-.26-.26-.26H.9a.84.84,0,0,1-.85-.59.83.83,0,0,1,.78-1.09H3c.28,0,.28,0,.28-.27V26.35c0-.27,0-.27-.28-.27H1a1,1,0,0,1-.8-.28.79.79,0,0,1-.15-.9.82.82,0,0,1,.77-.51H3c.28,0,.28,0,.28-.28V21.47c0-.27,0-.27-.28-.27H.89a.85.85,0,1,1,0-1.69H3c.28,0,.28,0,.28-.27,0-.9,0-1.79,0-2.69,0-.18-.06-.24-.24-.24-.7,0-1.41,0-2.11,0a.84.84,0,1,1,0-1.68H3c.28,0,.28,0,.28-.27,0-.9,0-1.79,0-2.68,0-.19-.07-.25-.25-.24H.83A.79.79,0,0,1,.12,11a.81.81,0,0,1,.06-.94.76.76,0,0,1,.64-.31H3c.18,0,.24-.06.24-.23q0-1.38,0-2.76c0-.19-.07-.24-.25-.24H.89a.83.83,0,1,1,0-1.66H2.93c.32,0,.32,0,.32-.31V2.49A2.47,2.47,0,0,1,5.75,0H33.36a2.46,2.46,0,0,1,2.49,2.49V22.77Zm-1.69,0V2.59A1,1,0,0,0,34,2.05a.84.84,0,0,0-.82-.39H24.05c-1.31,0-2.62,0-3.94,0H5.84a.82.82,0,0,0-.9.9c0,.69,0,1.38,0,2.08,0,.2.07.25.26.24h2.1a.92.92,0,0,1,.37,0,.87.87,0,0,1,.52.93.81.81,0,0,1-.82.68H5.18c-.19,0-.25.06-.24.24V9.53c0,.19.06.24.25.24H7.35a.84.84,0,0,1,.41.08.86.86,0,0,1,.39,1,.8.8,0,0,1-.8.61H5.18c-.19,0-.25.06-.24.25v2.68c0,.2,0,.27.25.27q1,0,2.07,0a.86.86,0,0,1,.8.4.83.83,0,0,1-.73,1.28c-.7,0-1.41,0-2.12,0-.27,0-.27,0-.27.27v2.66c0,.26,0,.27.27.27h2a.84.84,0,0,1,.81.41.83.83,0,0,1-.74,1.27H5.2c-.2,0-.27.06-.27.26,0,.9,0,1.79,0,2.68,0,.21.06.27.26.27H7.3a.82.82,0,0,1,.77.42.84.84,0,0,1-.8,1.27H5.19c-.18,0-.26.05-.25.25V29c0,.19,0,.26.24.26.72,0,1.43,0,2.15,0a.82.82,0,0,1,.79.51A.84.84,0,0,1,7.3,31H5.2c-.19,0-.27.05-.26.26v2.66c0,.28,0,.28.28.28H7.34a.78.78,0,0,1,.75.44.82.82,0,0,1-.78,1.22H5.19c-.18,0-.26,0-.25.24V38.8c0,.18,0,.25.23.25H7.28a1.24,1.24,0,0,1,.27,0,.82.82,0,0,1,.63.92.81.81,0,0,1-.81.71H5.21c-.25,0-.27,0-.27.27,0,.68,0,1.35,0,2a.87.87,0,0,0,.94.93H33.3a.79.79,0,0,0,.86-.87V22.81Z"/><path class="cls-2" d="M18.78,21.15a5,5,0,0,1-4.11-5.37,4.91,4.91,0,1,1,5.69,5.36A6.51,6.51,0,0,1,22,21.3a7.44,7.44,0,0,1,1.78.65,7.19,7.19,0,0,1,2,1.53,7.33,7.33,0,0,1,1.87,3.77c.06.35.08.7.11,1.05a.88.88,0,0,1-1,1H12.34a.92.92,0,0,1-.95-1.06c.06-.41.06-.82.15-1.23a7.33,7.33,0,0,1,6.24-5.83A4.64,4.64,0,0,1,18.78,21.15Zm.77,6.49h6.13c.29,0,.29,0,.24-.3a5.39,5.39,0,0,0-.84-2,5.48,5.48,0,0,0-3.14-2.3,10,10,0,0,0-4-.16,5.58,5.58,0,0,0-4.78,4.45c-.06.29,0,.3.24.3Zm0-14.58a3.23,3.23,0,1,0,3.22,3.34A3.24,3.24,0,0,0,19.56,13.06Z"/></svg>