<svg id="Camada_1" data-name="Camada 1" xmlns="http://www.w3.org/2000/svg" xmlns:xlink="http://www.w3.org/1999/xlink" viewBox="0 0 55.53 56.06"><defs><style>.cls-1{fill:url(#radial-gradient);}.cls-2{fill:url(#radial-gradient-2);}.cls-3{fill:#fff;}</style><radialGradient id="radial-gradient" cx="16.76" cy="57.62" r="60" gradientUnits="userSpaceOnUse"><stop offset="0.22" stop-color="#e6e6e6"/><stop offset="0.88" stop-color="#fcfcfc"/></radialGradient><radialGradient id="radial-gradient-2" cx="13.8" cy="57.24" r="56.55" gradientUnits="userSpaceOnUse"><stop offset="0.1" stop-color="#ffd779"/><stop offset="0.15" stop-color="#fcca76"/><stop offset="0.26" stop-color="#f4a96c"/><stop offset="0.4" stop-color="#e8745e"/><stop offset="0.45" stop-color="#e35f58"/><stop offset="0.68" stop-color="#d12a9b"/><stop offset="1" stop-color="#6968de"/></radialGradient></defs><title>Instagram</title><path class="cls-1" d="M27.76,0A27.77,27.77,0,0,0,3.89,41.94L.39,56.06l13.92-4A27.76,27.76,0,1,0,27.76,0Z"/><path class="cls-2" d="M28.08,4.82A23.05,23.05,0,0,0,9.12,41l-2,8.16L15,46.86a23,23,0,1,0,13.06-42Z"/><path class="cls-3" d="M33.35,13.48H22.18a9,9,0,0,0-9,9V33.61a9,9,0,0,0,9,9H33.35a9,9,0,0,0,9-9V22.44A9,9,0,0,0,33.35,13.48Zm6.17,19.06a7.25,7.25,0,0,1-7.24,7.25h-9A7.25,7.25,0,0,1,16,32.54v-9a7.24,7.24,0,0,1,7.24-7.25h9a7.24,7.24,0,0,1,7.24,7.25Z"/><path class="cls-3" d="M28.15,20.41a7.67,7.67,0,1,0,7.67,7.67A7.66,7.66,0,0,0,28.15,20.41Zm0,12.28a4.61,4.61,0,1,1,4.62-4.61A4.61,4.61,0,0,1,28.15,32.69Z"/><path class="cls-3" d="M36.81,20.29a1.52,1.52,0,1,1-1.52-1.52A1.52,1.52,0,0,1,36.81,20.29Z"/></svg>