<svg xmlns="http://www.w3.org/2000/svg" xmlns:xlink="http://www.w3.org/1999/xlink" viewBox="0 0 339 110.78"><defs><style>.cls-1{isolation:isolate;}.cls-2{font-size:18.32px;font-family:Lato-Light, Lato;font-weight:300;letter-spacing:0.13em;}.cls-2,.cls-8{fill:#323232;}.cls-3{letter-spacing:0.09em;}.cls-4{letter-spacing:0.11em;}.cls-5{letter-spacing:0.1em;}.cls-6{letter-spacing:0.07em;}.cls-7{letter-spacing:0.1em;}.cls-8{font-size:55.87px;font-family:Lato-Bold, Lato;font-weight:700;}.cls-9{letter-spacing:-0.01em;}.cls-10{letter-spacing:0em;}.cls-11{letter-spacing:-0.01em;}.cls-12{letter-spacing:0em;}.cls-13{letter-spacing:0em;}.cls-14{fill:#f8f8f8;}.cls-15{fill:url(#linear-gradient);}.cls-16{fill:#cbcbcb;}.cls-17{fill:url(#linear-gradient-2);}.cls-18{fill:#bb3434;}.cls-19,.cls-24{mix-blend-mode:screen;}.cls-20{fill:#d44545;}.cls-21{fill:#313131;}.cls-22,.cls-24{opacity:0.5;}.cls-22{mix-blend-mode:multiply;}.cls-23{fill:#636363;}.cls-25{fill:#ff3a19;}.cls-26{fill:url(#linear-gradient-3);}.cls-27{fill:none;stroke:#ff3a19;stroke-miterlimit:10;stroke-width:2px;}.cls-28{fill:url(#radial-gradient);}.cls-29{fill:url(#radial-gradient-2);}</style><linearGradient id="linear-gradient" x1="9.06" y1="61.53" x2="103.74" y2="60.46" gradientUnits="userSpaceOnUse"><stop offset="0" stop-color="#fff"/><stop offset="1" stop-color="#cecfd0"/></linearGradient><linearGradient id="linear-gradient-2" y1="20.58" x2="104.57" y2="20.58" gradientUnits="userSpaceOnUse"><stop offset="0" stop-color="#f9ae40"/><stop offset="0.52" stop-color="#f06522"/><stop offset="1" stop-color="#e13d21"/></linearGradient><linearGradient id="linear-gradient-3" x1="85.25" y1="50.09" x2="37.85" y2="81.58" xlink:href="#linear-gradient-2"/><radialGradient id="radial-gradient" cx="72.7" cy="71.16" r="17.56" gradientUnits="userSpaceOnUse"><stop offset="0" stop-color="#fff"/><stop offset="0.59" stop-color="#fdfdfd"/><stop offset="0.8" stop-color="#f6f7f7"/><stop offset="0.95" stop-color="#ebebec"/><stop offset="1" stop-color="#e5e6e7"/></radialGradient><radialGradient id="radial-gradient-2" cx="37.25" cy="71.8" r="18.66" xlink:href="#radial-gradient"/></defs><title>Logotipo Escuro MK Contatos</title><g class="cls-1"><g id="Camada_1" data-name="Camada 1"><text class="cls-2" transform="translate(122.58 90.31)">DIRE<tspan class="cls-3" x="49.96" y="0">T</tspan><tspan x="62.19" y="0">O </tspan><tspan class="cls-4" x="86.43" y="0">D</tspan><tspan class="cls-5" x="102.44" y="0">A</tspan><tspan x="116.22" y="0"> </tspan><tspan class="cls-6" x="123.58" y="0">F</tspan><tspan x="135.27" y="0">ÁBRIC</tspan><tspan class="cls-7" x="199.04" y="0">A</tspan></text><text class="cls-8" transform="translate(113.46 63.77)"><tspan class="cls-9">C</tspan><tspan class="cls-10" x="36.37" y="0">o</tspan><tspan class="cls-11" x="68.47" y="0">n</tspan><tspan class="cls-12" x="99.58" y="0">t</tspan><tspan class="cls-11" x="120.37" y="0">a</tspan><tspan class="cls-13" x="148.33" y="0">t</tspan><tspan x="168.89" y="0">os</tspan></text><rect class="cls-14" y="6.21" width="104.57" height="104.57" rx="13.24"/><path class="cls-15" d="M100.9,10.31a13.18,13.18,0,0,1,3,8.36V96.76A13.24,13.24,0,0,1,90.64,110H12.55A13.19,13.19,0,0,1,3,105.89a13.23,13.23,0,0,0,10.27,4.89H91.33a13.24,13.24,0,0,0,13.24-13.24V19.45A13.21,13.21,0,0,0,100.9,10.31Z"/><path class="cls-16" d="M.69,97.54V19.45A13.24,13.24,0,0,1,13.93,6.21h-.69A13.24,13.24,0,0,0,0,19.45V97.54a13.24,13.24,0,0,0,13.24,13.24h.69A13.24,13.24,0,0,1,.69,97.54Z"/><path class="cls-17" d="M91.33,6.21H13.24A13.24,13.24,0,0,0,0,19.45V35H104.57V19.45A13.24,13.24,0,0,0,91.33,6.21Z"/><path class="cls-18" d="M91.33,6.21h-.69a13.24,13.24,0,0,1,13.24,13.24V35h.69V19.45A13.24,13.24,0,0,0,91.33,6.21Z"/><g class="cls-19"><path class="cls-20" d="M.69,20.34A13.24,13.24,0,0,1,13.93,7.1H92a13.2,13.2,0,0,1,10.09,4.67A13.22,13.22,0,0,0,91.33,6.21H13.24A13.24,13.24,0,0,0,0,19.45V35H.69Z"/></g><circle class="cls-21" cx="19.2" cy="12.26" r="3.54"/><g class="cls-22"><path class="cls-20" d="M19.2,8.72a3.55,3.55,0,0,1,3.54,3.42V12a3.54,3.54,0,1,0-7.08,0v.13A3.55,3.55,0,0,1,19.2,8.72Z"/></g><g class="cls-19"><path class="cls-20" d="M19.2,15.81a3.54,3.54,0,0,1-3.53-3.3,2,2,0,0,0,0,.25,3.54,3.54,0,0,0,7.08,0,2,2,0,0,0,0-.25A3.54,3.54,0,0,1,19.2,15.81Z"/></g><circle class="cls-21" cx="35.74" cy="12.26" r="3.54" transform="translate(-1.87 8.66) rotate(-13.46)"/><g class="cls-22"><path class="cls-20" d="M35.74,8.72a3.54,3.54,0,0,1,3.54,3.42c0-.05,0-.09,0-.13a3.55,3.55,0,1,0-7.09,0v.13A3.55,3.55,0,0,1,35.74,8.72Z"/></g><g class="cls-19"><path class="cls-20" d="M35.74,15.81a3.55,3.55,0,0,1-3.53-3.3,2,2,0,0,0,0,.25,3.55,3.55,0,0,0,7.09,0,2,2,0,0,0,0-.25A3.53,3.53,0,0,1,35.74,15.81Z"/></g><circle class="cls-21" cx="52.28" cy="12.26" r="3.54" transform="translate(-1.42 12.24) rotate(-13.17)"/><g class="cls-22"><path class="cls-20" d="M52.28,8.72a3.54,3.54,0,0,1,3.54,3.42c0-.05,0-.09,0-.13a3.55,3.55,0,1,0-7.09,0,.62.62,0,0,0,0,.13A3.53,3.53,0,0,1,52.28,8.72Z"/></g><g class="cls-19"><path class="cls-20" d="M52.28,15.81a3.55,3.55,0,0,1-3.53-3.3c0,.08,0,.16,0,.25a3.55,3.55,0,0,0,7.09,0c0-.09,0-.17,0-.25A3.55,3.55,0,0,1,52.28,15.81Z"/></g><circle class="cls-21" cx="68.82" cy="12.26" r="3.54"/><g class="cls-22"><path class="cls-20" d="M68.82,8.72a3.54,3.54,0,0,1,3.54,3.42c0-.05,0-.09,0-.13a3.55,3.55,0,1,0-7.09,0s0,.08,0,.13A3.54,3.54,0,0,1,68.82,8.72Z"/></g><g class="cls-19"><path class="cls-20" d="M68.82,15.81a3.55,3.55,0,0,1-3.53-3.3c0,.08,0,.16,0,.25a3.55,3.55,0,0,0,7.09,0c0-.09,0-.17,0-.25A3.55,3.55,0,0,1,68.82,15.81Z"/></g><circle class="cls-21" cx="85.37" cy="12.26" r="3.54"/><g class="cls-22"><path class="cls-20" d="M85.37,8.72a3.53,3.53,0,0,1,3.53,3.42.62.62,0,0,0,0-.13,3.55,3.55,0,1,0-7.09,0s0,.08,0,.13A3.54,3.54,0,0,1,85.37,8.72Z"/></g><g class="cls-19"><path class="cls-20" d="M85.37,15.81a3.55,3.55,0,0,1-3.54-3.3c0,.08,0,.16,0,.25a3.55,3.55,0,0,0,7.09,0c0-.09,0-.17,0-.25A3.55,3.55,0,0,1,85.37,15.81Z"/></g><rect class="cls-18" y="34.95" width="104.57" height="0.89"/><path class="cls-23" d="M21.07,0a1.18,1.18,0,0,0-1.18,1.18v9.9a1.18,1.18,0,0,0,2.36,0V1.18A1.18,1.18,0,0,0,21.07,0Z"/><path class="cls-23" d="M17.43,0a1.18,1.18,0,0,0-1.18,1.18v9.9a1.18,1.18,0,0,0,2.36,0V1.18A1.18,1.18,0,0,0,17.43,0Z"/><path class="cls-23" d="M37.61,0a1.18,1.18,0,0,0-1.18,1.18v9.9a1.18,1.18,0,0,0,2.36,0V1.18A1.18,1.18,0,0,0,37.61,0Z"/><path class="cls-23" d="M34,0a1.18,1.18,0,0,0-1.18,1.18v9.9a1.18,1.18,0,0,0,2.36,0V1.18A1.18,1.18,0,0,0,34,0Z"/><path class="cls-23" d="M54.15,0A1.18,1.18,0,0,0,53,1.18v9.9a1.19,1.19,0,0,0,2.37,0V1.18A1.18,1.18,0,0,0,54.15,0Z"/><path class="cls-23" d="M50.51,0a1.18,1.18,0,0,0-1.18,1.18v9.9a1.18,1.18,0,1,0,2.36,0V1.18A1.18,1.18,0,0,0,50.51,0Z"/><path class="cls-23" d="M70.7,0a1.18,1.18,0,0,0-1.19,1.18v9.9a1.19,1.19,0,0,0,2.37,0V1.18A1.18,1.18,0,0,0,70.7,0Z"/><rect class="cls-23" x="65.87" width="2.36" height="12.26" rx="1.18"/><path class="cls-23" d="M87.24,0a1.18,1.18,0,0,0-1.18,1.18v9.9a1.18,1.18,0,0,0,2.36,0V1.18A1.18,1.18,0,0,0,87.24,0Z"/><path class="cls-23" d="M83.59,0a1.18,1.18,0,0,0-1.18,1.18v9.9a1.19,1.19,0,0,0,2.37,0V1.18A1.18,1.18,0,0,0,83.59,0Z"/><g class="cls-24"><path class="cls-23" d="M70.7,0a1.18,1.18,0,0,0-1.19,1.18v.67a1.19,1.19,0,1,1,2.37,0V1.18A1.18,1.18,0,0,0,70.7,0Z"/></g><g class="cls-22"><path class="cls-23" d="M70.7,11.56a1.18,1.18,0,0,1-1.19-1.18v.7a1.19,1.19,0,0,0,2.37,0v-.7A1.18,1.18,0,0,1,70.7,11.56Z"/></g><g class="cls-24"><path class="cls-23" d="M67.05,0a1.18,1.18,0,0,0-1.18,1.18v.67a1.18,1.18,0,1,1,2.36,0V1.18A1.18,1.18,0,0,0,67.05,0Z"/></g><g class="cls-22"><path class="cls-23" d="M67.05,11.56a1.18,1.18,0,0,1-1.18-1.18v.7a1.18,1.18,0,0,0,2.36,0v-.7A1.18,1.18,0,0,1,67.05,11.56Z"/></g><g class="cls-24"><path class="cls-23" d="M54.15,0A1.18,1.18,0,0,0,53,1.18v.67a1.19,1.19,0,1,1,2.37,0V1.18A1.18,1.18,0,0,0,54.15,0Z"/></g><g class="cls-22"><path class="cls-23" d="M54.15,11.56A1.18,1.18,0,0,1,53,10.38v.7a1.19,1.19,0,0,0,2.37,0v-.7A1.18,1.18,0,0,1,54.15,11.56Z"/></g><g class="cls-24"><path class="cls-23" d="M50.51,0a1.18,1.18,0,0,0-1.18,1.18v.67a1.18,1.18,0,1,1,2.36,0V1.18A1.18,1.18,0,0,0,50.51,0Z"/></g><g class="cls-22"><path class="cls-23" d="M50.51,11.56a1.18,1.18,0,0,1-1.18-1.18v.7a1.18,1.18,0,1,0,2.36,0v-.7A1.18,1.18,0,0,1,50.51,11.56Z"/></g><g class="cls-24"><path class="cls-23" d="M37.61,0a1.18,1.18,0,0,0-1.18,1.18v.67a1.18,1.18,0,1,1,2.36,0V1.18A1.18,1.18,0,0,0,37.61,0Z"/></g><g class="cls-22"><path class="cls-23" d="M37.61,11.56a1.18,1.18,0,0,1-1.18-1.18v.7a1.18,1.18,0,0,0,2.36,0v-.7A1.18,1.18,0,0,1,37.61,11.56Z"/></g><g class="cls-24"><path class="cls-23" d="M34,0a1.18,1.18,0,0,0-1.18,1.18v.67a1.18,1.18,0,1,1,2.36,0V1.18A1.18,1.18,0,0,0,34,0Z"/></g><g class="cls-22"><path class="cls-23" d="M34,11.56a1.18,1.18,0,0,1-1.18-1.18v.7a1.18,1.18,0,0,0,2.36,0v-.7A1.18,1.18,0,0,1,34,11.56Z"/></g><g class="cls-24"><path class="cls-23" d="M21.07,0a1.18,1.18,0,0,0-1.18,1.18v.67a1.18,1.18,0,1,1,2.36,0V1.18A1.18,1.18,0,0,0,21.07,0Z"/></g><g class="cls-22"><path class="cls-23" d="M21.07,11.56a1.18,1.18,0,0,1-1.18-1.18v.7a1.18,1.18,0,0,0,2.36,0v-.7A1.18,1.18,0,0,1,21.07,11.56Z"/></g><g class="cls-24"><path class="cls-23" d="M17.43,0a1.18,1.18,0,0,0-1.18,1.18v.67a1.18,1.18,0,1,1,2.36,0V1.18A1.18,1.18,0,0,0,17.43,0Z"/></g><g class="cls-22"><path class="cls-23" d="M17.43,11.56a1.18,1.18,0,0,1-1.18-1.18v.7a1.18,1.18,0,0,0,2.36,0v-.7A1.18,1.18,0,0,1,17.43,11.56Z"/></g><g class="cls-24"><path class="cls-23" d="M83.59,0a1.18,1.18,0,0,0-1.18,1.18v.67a1.19,1.19,0,1,1,2.37,0V1.18A1.18,1.18,0,0,0,83.59,0Z"/></g><g class="cls-22"><path class="cls-23" d="M83.59,11.56a1.18,1.18,0,0,1-1.18-1.18v.7a1.19,1.19,0,0,0,2.37,0v-.7A1.18,1.18,0,0,1,83.59,11.56Z"/></g><g class="cls-24"><path class="cls-23" d="M87.24,0a1.18,1.18,0,0,0-1.18,1.18v.67a1.18,1.18,0,1,1,2.36,0V1.18A1.18,1.18,0,0,0,87.24,0Z"/></g><g class="cls-22"><path class="cls-23" d="M87.24,11.56a1.18,1.18,0,0,1-1.18-1.18v.7a1.18,1.18,0,0,0,2.36,0v-.7A1.18,1.18,0,0,1,87.24,11.56Z"/></g><circle class="cls-25" cx="54.13" cy="70.77" r="31.45"/><circle class="cls-26" cx="54.13" cy="70.77" r="30.31"/><path class="cls-27" d="M64.89,67.59h1.34a3,3,0,0,0,2.68-1.21l8.16-12.29a4,4,0,0,1,1.56-1.35,5,5,0,0,1,2.07-.38H88L77.27,67.56a7.31,7.31,0,0,1-2.46,2.27,6.33,6.33,0,0,1,1.72,1A7.62,7.62,0,0,1,78,72.52L88.91,90H81.4a6.23,6.23,0,0,1-1.23-.1,2.93,2.93,0,0,1-.88-.31,2.5,2.5,0,0,1-.65-.5,4.78,4.78,0,0,1-.52-.69L69.91,75.28a2.56,2.56,0,0,0-1.13-1,4.75,4.75,0,0,0-1.86-.3h-2V90h-3.7a4.79,4.79,0,0,1-4.71-4.88V52.36h8.41Z"/><path class="cls-27" d="M53.05,52.36c-1.3,0-1.77.52-2.69,1.44L37.25,67.45,24.13,53.8c-.92-.92-1.38-1.44-2.69-1.44s-2,1.11-2,2.48V82.46c0,4.77,2.25,8.12,6.8,8.76a1.42,1.42,0,0,0,1.62-1.4V71a.49.49,0,0,1,.84-.35l8.53,8.88.06.06,0-.06,8.54-8.88a.49.49,0,0,1,.83.35V89.82a1.42,1.42,0,0,0,1.62,1.4c4.55-.64,6.81-4,6.81-8.76V54.84C55.1,53.47,54.42,52.36,53.05,52.36Z"/><path class="cls-28" d="M64.89,67.59h1.34a3,3,0,0,0,2.68-1.21l8.16-12.29a4,4,0,0,1,1.56-1.35,5,5,0,0,1,2.07-.38H88L77.27,67.56a7.31,7.31,0,0,1-2.46,2.27,6.33,6.33,0,0,1,1.72,1A7.62,7.62,0,0,1,78,72.52L88.91,90H81.4a6.23,6.23,0,0,1-1.23-.1,2.93,2.93,0,0,1-.88-.31,2.5,2.5,0,0,1-.65-.5,4.78,4.78,0,0,1-.52-.69L69.91,75.28a2.56,2.56,0,0,0-1.13-1,4.75,4.75,0,0,0-1.86-.3h-2V90h-3.7a4.79,4.79,0,0,1-4.71-4.88V52.36h8.41Z"/><path class="cls-29" d="M53.05,52.36c-1.3,0-1.77.52-2.69,1.44L37.25,67.45,24.13,53.8c-.92-.92-1.38-1.44-2.69-1.44s-2,1.11-2,2.48V82.46c0,4.77,2.25,8.12,6.8,8.76a1.42,1.42,0,0,0,1.62-1.4V71a.49.49,0,0,1,.84-.35l8.53,8.88.06.06,0-.06,8.54-8.88a.49.49,0,0,1,.83.35V89.82a1.42,1.42,0,0,0,1.62,1.4c4.55-.64,6.81-4,6.81-8.76V54.84C55.1,53.47,54.42,52.36,53.05,52.36Z"/></g></g></svg>