<svg id="Camada_1" data-name="Camada 1" xmlns="http://www.w3.org/2000/svg" xmlns:xlink="http://www.w3.org/1999/xlink" viewBox="0 0 55.53 56.06"><defs><style>.cls-1{fill:url(#radial-gradient);}.cls-2{fill:url(#radial-gradient-2);}.cls-3{fill:url(#radial-gradient-3);}</style><radialGradient id="radial-gradient" cx="16.76" cy="57.62" r="60" gradientUnits="userSpaceOnUse"><stop offset="0.22" stop-color="#e6e6e6"/><stop offset="0.88" stop-color="#fcfcfc"/></radialGradient><radialGradient id="radial-gradient-2" cx="13.8" cy="57.24" r="56.55" gradientUnits="userSpaceOnUse"><stop offset="0.18" stop-color="#36b549"/><stop offset="0.76" stop-color="#57c865"/></radialGradient><radialGradient id="radial-gradient-3" cx="17.4" cy="45.06" r="26.84" gradientUnits="userSpaceOnUse"><stop offset="0.22" stop-color="#e6e6e6"/><stop offset="0.88" stop-color="#fff"/></radialGradient></defs><title>WhatsApp</title><path class="cls-1" d="M27.76,0A27.77,27.77,0,0,0,3.89,41.94L.39,56.06l13.92-4A27.76,27.76,0,1,0,27.76,0Z"/><path class="cls-2" d="M28.08,4.82A23.05,23.05,0,0,0,9.12,41l-2,8.16L15,46.86a23,23,0,1,0,13.06-42Z"/><path class="cls-3" d="M20.75,25.56l1-1.1c.54-.63,1.35-1.24,1.39-2.14a6.44,6.44,0,0,0-.57-2.52l-.6-1.52a10.06,10.06,0,0,0-1.31-2.75,2.45,2.45,0,0,0-2.81-.44S12.36,17.71,14,22.94A24.66,24.66,0,0,0,33.63,40.76s5.87.83,7.44-2.73a6.23,6.23,0,0,0,.51-2.69,2.22,2.22,0,0,0-1.29-1.73c-.87-.49-1.63-1-2.61-1.44s-1.83-1-2.81-.77a4.13,4.13,0,0,0-1.72,1.38l-1.93,2S22.94,31.75,20.75,25.56Z"/></svg>