<svg id="Camada_1" data-name="Camada 1" xmlns="http://www.w3.org/2000/svg" xmlns:xlink="http://www.w3.org/1999/xlink" viewBox="0 0 55.53 56.06"><defs><style>.cls-1{fill:url(#radial-gradient);}.cls-2{fill:url(#radial-gradient-2);}.cls-3{fill:#fff;}.cls-4{fill:#e7dfdf;}</style><radialGradient id="radial-gradient" cx="16.76" cy="57.62" r="60" gradientUnits="userSpaceOnUse"><stop offset="0.22" stop-color="#e6e6e6"/><stop offset="0.88" stop-color="#fcfcfc"/></radialGradient><radialGradient id="radial-gradient-2" cx="13.8" cy="57.24" r="56.55" gradientUnits="userSpaceOnUse"><stop offset="0.17" stop-color="#c1181e"/><stop offset="0.77" stop-color="#dd2925"/></radialGradient></defs><title>Youtube</title><path class="cls-1" d="M27.76,0A27.77,27.77,0,0,0,3.89,41.94L.39,56.06l13.92-4A27.76,27.76,0,1,0,27.76,0Z"/><path class="cls-2" d="M28.08,4.82A23.05,23.05,0,0,0,9.12,41l-2,8.16L15,46.86a23,23,0,1,0,13.06-42Z"/><polygon class="cls-3" points="22.62 20.62 36.81 28.03 22.62 35.43 22.62 20.62"/><polygon class="cls-4" points="22.62 20.74 34.96 28.99 36.81 28.03 23.72 21.2 22.62 20.72 22.62 20.74"/></svg>